<?xml version="1.0" encoding="UTF-8" standalone="no"?>
<!DOCTYPE svg PUBLIC "-//W3C//DTD SVG 1.1//EN" "http://www.w3.org/Graphics/SVG/1.1/DTD/svg11.dtd">
<svg width="100%" height="100%" viewBox="0 0 160 52" version="1.1" xmlns="http://www.w3.org/2000/svg" xmlns:xlink="http://www.w3.org/1999/xlink" xml:space="preserve" xmlns:serif="http://www.serif.com/" style="fill-rule:evenodd;clip-rule:evenodd;stroke-linejoin:round;stroke-miterlimit:1.41421;">
    <g>
        <path d="M158.72,27.63L1.04,27.63C0.46,27.63 0,28.09 0,28.67L0,40.27C0,40.85 0.46,41.31 1.04,41.31L158.73,41.31C159.31,41.31 159.77,40.85 159.77,40.27L159.77,28.67C159.76,28.09 159.3,27.63 158.72,27.63ZM114.87,32.17L113.21,32.17L113.21,37.62C113.21,38.1 112.83,38.48 112.35,38.48C111.87,38.48 111.49,38.1 111.49,37.62L111.49,32.17L109.83,32.17C109.4,32.17 109.03,31.82 109.03,31.37C109.03,30.94 109.38,30.57 109.83,30.57L114.86,30.57C115.29,30.57 115.66,30.92 115.66,31.37C115.65,31.8 115.3,32.17 114.87,32.17ZM123.37,33.17C123.37,34.4 122.76,35.17 121.8,35.55L123,37C123.18,37.21 123.29,37.38 123.29,37.66C123.29,38.14 122.89,38.46 122.48,38.46C122.08,38.46 121.82,38.27 121.63,38.01L119.95,35.89L118.58,35.89L118.58,37.6C118.58,38.08 118.2,38.46 117.72,38.46C117.24,38.46 116.86,38.08 116.86,37.6L116.84,31.42C116.84,30.94 117.22,30.56 117.7,30.56L120.42,30.56C121.41,30.56 122.19,30.83 122.7,31.36C123.13,31.79 123.37,32.41 123.37,33.15L123.37,33.17ZM131.24,38.46C130.84,38.46 130.57,38.22 130.41,37.87L129.88,36.64L126.43,36.64L125.89,37.93C125.75,38.27 125.46,38.47 125.09,38.47C124.64,38.47 124.29,38.12 124.29,37.67C124.29,37.54 124.34,37.43 124.39,37.3L127.11,31.13C127.3,30.7 127.65,30.44 128.12,30.44L128.22,30.44C128.68,30.44 129.02,30.7 129.21,31.13L131.94,37.3C132,37.43 132.04,37.54 132.04,37.65C132.06,38.08 131.71,38.46 131.24,38.46ZM138.93,31.69L136.37,37.82C136.19,38.25 135.87,38.51 135.4,38.51L135.29,38.51C134.83,38.51 134.49,38.25 134.32,37.82L131.76,31.75C131.71,31.62 131.66,31.48 131.66,31.33C131.66,30.85 132.04,30.48 132.52,30.48C132.97,30.48 133.25,30.74 133.4,31.09L135.37,36.15L137.35,31.02C137.46,30.73 137.77,30.48 138.18,30.48C138.64,30.48 139.03,30.83 139.03,31.31C139.01,31.43 138.98,31.59 138.93,31.69ZM145.53,38.37L141.14,38.37C140.66,38.37 140.28,37.99 140.28,37.51L140.26,31.41C140.26,30.93 140.64,30.55 141.12,30.55L145.47,30.55C145.9,30.55 146.24,30.9 146.24,31.32C146.24,31.75 145.89,32.09 145.47,32.09L141.97,32.09L141.97,33.67L144.96,33.67C145.39,33.67 145.73,34.02 145.73,34.44C145.73,34.87 145.38,35.21 144.96,35.21L141.97,35.21L141.97,36.86L145.52,36.86C145.95,36.86 146.29,37.21 146.29,37.63C146.29,38.03 145.94,38.37 145.53,38.37ZM152.59,38.37L148.53,38.37C148.05,38.37 147.67,37.99 147.67,37.51L147.65,31.33C147.65,30.85 148.03,30.47 148.51,30.47C148.99,30.47 149.37,30.85 149.37,31.33L149.37,36.81L152.57,36.81C153,36.81 153.35,37.16 153.35,37.59C153.37,38.02 153.04,38.37 152.59,38.37Z" style="fill:rgb(238,48,66);fill-rule:nonzero;"/>
        <path d="M120.27,32.12L118.56,32.12L118.56,34.37L120.3,34.37C121.15,34.37 121.63,33.92 121.63,33.27L121.63,33.25C121.63,32.5 121.1,32.12 120.27,32.12Z" style="fill:rgb(238,48,66);fill-rule:nonzero;"/>
        <path d="M127.07,35.11L129.25,35.11L128.16,32.54L127.07,35.11Z" style="fill:rgb(238,48,66);fill-rule:nonzero;"/>
        <path d="M2.3,46.23L0.8,46.23C0.4,46.23 0.08,45.91 0.08,45.51C0.08,45.11 0.4,44.79 0.8,44.79L5.37,44.79C5.77,44.79 6.09,45.11 6.09,45.51C6.09,45.91 5.77,46.23 5.37,46.23L3.87,46.23L3.87,51.18C3.87,51.61 3.52,51.96 3.09,51.96C2.66,51.96 2.3,51.61 2.3,51.18L2.3,46.23Z" style="fill:rgb(238,48,66);fill-rule:nonzero;"/>
        <path d="M7.33,45.49C7.33,45.06 7.68,44.71 8.11,44.71C8.54,44.71 8.89,45.06 8.89,45.49L8.89,47.58L11.78,47.58L11.78,45.49C11.78,45.06 12.13,44.71 12.56,44.71C12.99,44.71 13.34,45.06 13.34,45.49L13.34,51.16C13.34,51.59 12.99,51.94 12.56,51.94C12.13,51.94 11.78,51.59 11.78,51.16L11.78,49.02L8.9,49.02L8.9,51.16C8.9,51.59 8.55,51.94 8.12,51.94C7.69,51.94 7.34,51.59 7.34,51.16L7.34,45.49L7.33,45.49Z" style="fill:rgb(238,48,66);fill-rule:nonzero;"/>
        <path d="M15.16,51.1L15.16,45.56C15.16,45.13 15.51,44.78 15.94,44.78L19.89,44.78C20.27,44.78 20.59,45.1 20.59,45.48C20.59,45.86 20.27,46.17 19.89,46.17L16.73,46.17L16.73,47.61L19.45,47.61C19.83,47.61 20.15,47.93 20.15,48.31C20.15,48.69 19.83,49 19.45,49L16.73,49L16.73,50.49L19.96,50.49C20.34,50.49 20.66,50.81 20.66,51.19C20.66,51.57 20.34,51.88 19.96,51.88L15.97,51.88C15.51,51.88 15.16,51.53 15.16,51.1Z" style="fill:rgb(238,48,66);fill-rule:nonzero;"/>
        <path d="M26.87,46.19L25.37,46.19C24.97,46.19 24.65,45.87 24.65,45.47C24.65,45.07 24.97,44.75 25.37,44.75L29.94,44.75C30.34,44.75 30.66,45.07 30.66,45.47C30.66,45.87 30.34,46.19 29.94,46.19L28.44,46.19L28.44,51.14C28.44,51.57 28.09,51.92 27.66,51.92C27.23,51.92 26.88,51.57 26.88,51.14L26.88,46.19L26.87,46.19Z" style="fill:rgb(238,48,66);fill-rule:nonzero;"/>
        <path d="M37.83,47.11L37.83,47.09C37.83,46.42 37.62,45.86 37.22,45.46C36.76,45 36.05,44.74 35.14,44.74L32.66,44.74C32.23,44.74 31.88,45.09 31.88,45.52L31.88,51.13C31.88,51.56 32.23,51.91 32.66,51.91C33.09,51.91 33.44,51.56 33.44,51.13L33.44,49.58L34.69,49.58L36.22,51.51C36.4,51.75 36.64,51.91 36.99,51.91C37.37,51.91 37.72,51.62 37.72,51.19C37.72,50.95 37.62,50.79 37.46,50.58L36.37,49.25C37.27,48.91 37.83,48.22 37.83,47.11ZM36.25,47.19C36.25,47.8 35.82,48.2 35.05,48.2L33.47,48.2L33.47,46.16L35.02,46.16C35.79,46.16 36.25,46.51 36.25,47.17L36.25,47.19Z" style="fill:rgb(238,48,66);fill-rule:nonzero;"/>
        <path d="M45.82,50.83L43.33,45.24C43.15,44.86 42.85,44.62 42.42,44.62L42.34,44.62C41.91,44.62 41.61,44.86 41.43,45.24L38.95,50.85C38.9,50.96 38.85,51.07 38.85,51.19C38.85,51.59 39.17,51.92 39.57,51.92C39.89,51.92 40.16,51.74 40.29,51.42L40.79,50.25L43.92,50.25L44.4,51.37C44.54,51.69 44.78,51.91 45.15,51.91C45.57,51.91 45.88,51.57 45.88,51.16C45.92,51.04 45.88,50.94 45.82,50.83ZM41.38,48.86L42.37,46.51L43.36,48.86L41.38,48.86Z" style="fill:rgb(238,48,66);fill-rule:nonzero;"/>
        <path d="M47.91,51.32L45.59,45.81C45.54,45.68 45.49,45.57 45.49,45.43C45.49,45 45.84,44.66 46.27,44.66C46.67,44.66 46.94,44.9 47.07,45.2L48.86,49.8L50.65,45.15C50.75,44.89 51.02,44.65 51.4,44.65C51.83,44.65 52.17,44.97 52.17,45.4C52.17,45.53 52.12,45.66 52.09,45.75L49.77,51.33C49.61,51.71 49.31,51.95 48.89,51.95L48.79,51.95C48.38,51.95 48.09,51.71 47.91,51.32Z" style="fill:rgb(238,48,66);fill-rule:nonzero;"/>
        <path d="M53.5,51.04L53.5,45.5C53.5,45.07 53.85,44.72 54.28,44.72L58.23,44.72C58.61,44.72 58.93,45.04 58.93,45.42C58.93,45.8 58.61,46.11 58.23,46.11L55.07,46.11L55.07,47.55L57.79,47.55C58.17,47.55 58.49,47.87 58.49,48.25C58.49,48.63 58.17,48.94 57.79,48.94L55.07,48.94L55.07,50.43L58.3,50.43C58.68,50.43 59,50.75 59,51.13C59,51.51 58.68,51.82 58.3,51.82L54.3,51.82C53.84,51.82 53.5,51.48 53.5,51.04Z" style="fill:rgb(238,48,66);fill-rule:nonzero;"/>
        <path d="M60.41,45.43C60.41,45 60.76,44.65 61.19,44.65C61.62,44.65 61.97,45 61.97,45.43L61.97,50.4L64.86,50.4C65.26,50.4 65.58,50.72 65.58,51.1C65.58,51.5 65.26,51.82 64.88,51.82L61.2,51.82C60.77,51.82 60.42,51.47 60.42,51.04L60.41,45.43Z" style="fill:rgb(238,48,66);fill-rule:nonzero;"/>
        <path d="M72.85,44.69L70.73,44.69C70.3,44.69 69.95,45.04 69.95,45.47L69.95,51.08C69.95,51.51 70.3,51.86 70.73,51.86C71.16,51.86 71.51,51.51 71.51,51.08L71.51,49.67L72.69,49.67C74.29,49.67 75.57,48.81 75.57,47.16L75.57,47.14C75.57,45.68 74.54,44.69 72.85,44.69ZM73.99,47.2C73.99,47.81 73.53,48.27 72.74,48.27L71.49,48.27L71.49,46.1L72.7,46.1C73.48,46.1 73.98,46.47 73.98,47.17L73.98,47.2L73.99,47.2Z" style="fill:rgb(238,48,66);fill-rule:nonzero;"/>
        <path d="M82.77,47.04L82.77,47.02C82.77,46.35 82.56,45.79 82.16,45.39C81.7,44.93 80.99,44.67 80.08,44.67L77.6,44.67C77.17,44.67 76.82,45.02 76.82,45.45L76.82,51.06C76.82,51.49 77.17,51.84 77.6,51.84C78.03,51.84 78.38,51.49 78.38,51.06L78.38,49.51L79.63,49.51L81.16,51.44C81.34,51.68 81.58,51.84 81.93,51.84C82.31,51.84 82.66,51.55 82.66,51.12C82.66,50.88 82.56,50.72 82.4,50.51L81.31,49.18C82.21,48.85 82.77,48.16 82.77,47.04ZM81.18,47.12C81.18,47.73 80.75,48.13 79.98,48.13L78.4,48.13L78.4,46.09L79.95,46.09C80.72,46.09 81.18,46.44 81.18,47.1L81.18,47.12Z" style="fill:rgb(238,48,66);fill-rule:nonzero;"/>
        <path d="M87.76,44.55C85.57,44.55 83.97,46.21 83.97,48.24L83.97,48.26C83.97,50.29 85.55,51.92 87.74,51.92C89.93,51.92 91.53,50.26 91.53,48.23L91.53,48.21C91.53,46.18 89.95,44.55 87.76,44.55ZM89.88,48.24C89.88,49.45 89.02,50.46 87.76,50.46C86.5,50.46 85.6,49.45 85.6,48.22L85.6,48.2C85.6,46.99 86.48,45.98 87.72,45.98C88.98,45.98 89.88,46.99 89.88,48.22L89.88,48.24Z" style="fill:rgb(238,48,66);fill-rule:nonzero;"/>
        <path d="M93.01,45.44C93.01,45.01 93.36,44.66 93.79,44.66L97.77,44.66C98.17,44.66 98.49,44.98 98.49,45.36C98.49,45.76 98.17,46.08 97.79,46.08L94.59,46.08L94.59,47.6L97.34,47.6C97.74,47.6 98.06,47.92 98.06,48.3C98.06,48.7 97.74,49.02 97.36,49.02L94.61,49.02L94.61,51.05C94.61,51.48 94.26,51.83 93.83,51.83C93.4,51.83 93.05,51.48 93.05,51.05L93.01,45.44Z" style="fill:rgb(238,48,66);fill-rule:nonzero;"/>
        <path d="M99.79,50.99L99.79,45.45C99.79,45.02 100.14,44.67 100.57,44.67L104.52,44.67C104.9,44.67 105.22,44.99 105.22,45.37C105.22,45.75 104.9,46.06 104.52,46.06L101.36,46.06L101.36,47.5L104.08,47.5C104.46,47.5 104.78,47.82 104.78,48.2C104.78,48.58 104.46,48.89 104.08,48.89L101.36,48.89L101.36,50.38L104.59,50.38C104.97,50.38 105.29,50.7 105.29,51.08C105.29,51.46 104.97,51.77 104.59,51.77L100.6,51.77C100.14,51.77 99.79,51.42 99.79,50.99Z" style="fill:rgb(238,48,66);fill-rule:nonzero;"/>
        <path d="M106.56,51C106.38,50.87 106.27,50.65 106.27,50.41C106.27,50.01 106.59,49.69 107,49.69C107.21,49.69 107.35,49.75 107.45,49.83C107.99,50.23 108.58,50.47 109.27,50.47C109.91,50.47 110.29,50.21 110.29,49.8L110.29,49.78C110.29,49.38 110.05,49.17 108.85,48.89C107.41,48.52 106.49,48.12 106.49,46.72L106.49,46.7C106.49,45.41 107.53,44.56 108.98,44.56C109.84,44.56 110.59,44.78 111.23,45.18C111.41,45.28 111.58,45.5 111.58,45.8C111.58,46.2 111.26,46.52 110.85,46.52C110.69,46.52 110.58,46.47 110.45,46.41C109.94,46.11 109.44,45.93 108.95,45.93C108.34,45.93 108.04,46.2 108.04,46.55L108.04,46.57C108.04,47.03 108.34,47.19 109.57,47.5C111.01,47.87 111.82,48.39 111.82,49.62L111.82,49.64C111.82,51.05 110.75,51.84 109.22,51.84C108.3,51.85 107.34,51.58 106.56,51Z" style="fill:rgb(238,48,66);fill-rule:nonzero;"/>
        <path d="M113.16,50.99C112.98,50.86 112.87,50.64 112.87,50.4C112.87,50 113.19,49.68 113.6,49.68C113.81,49.68 113.95,49.74 114.05,49.82C114.59,50.22 115.18,50.46 115.87,50.46C116.51,50.46 116.89,50.2 116.89,49.79L116.89,49.77C116.89,49.37 116.65,49.16 115.45,48.88C114.01,48.51 113.09,48.11 113.09,46.71L113.09,46.69C113.09,45.4 114.13,44.55 115.58,44.55C116.44,44.55 117.19,44.77 117.83,45.17C118.01,45.27 118.18,45.49 118.18,45.79C118.18,46.19 117.86,46.51 117.45,46.51C117.29,46.51 117.18,46.46 117.05,46.4C116.54,46.1 116.04,45.92 115.55,45.92C114.94,45.92 114.64,46.19 114.64,46.54L114.64,46.56C114.64,47.02 114.94,47.18 116.17,47.49C117.61,47.86 118.42,48.38 118.42,49.61L118.42,49.63C118.42,51.04 117.35,51.83 115.82,51.83C114.9,51.85 113.96,51.56 113.16,50.99Z" style="fill:rgb(238,48,66);fill-rule:nonzero;"/>
        <path d="M119.97,45.35C119.97,44.92 120.32,44.57 120.75,44.57C121.18,44.57 121.53,44.92 121.53,45.35L121.53,51.02C121.53,51.45 121.18,51.8 120.75,51.8C120.32,51.8 119.97,51.45 119.97,51.02L119.97,45.35Z" style="fill:rgb(238,48,66);fill-rule:nonzero;"/>
        <path d="M126.88,44.5C124.69,44.5 123.09,46.16 123.09,48.19L123.09,48.21C123.09,50.24 124.67,51.87 126.86,51.87C129.05,51.87 130.65,50.21 130.65,48.18L130.65,48.16C130.65,46.13 129.09,44.49 126.88,44.5ZM129.02,48.19C129.02,49.4 128.16,50.41 126.9,50.41C125.64,50.41 124.74,49.4 124.74,48.17L124.74,48.15C124.74,46.94 125.62,45.93 126.86,45.93C128.12,45.93 129.02,46.94 129.02,48.17L129.02,48.19Z" style="fill:rgb(238,48,66);fill-rule:nonzero;"/>
        <path d="M132.16,45.35C132.16,44.92 132.51,44.57 132.94,44.57L133.1,44.57C133.48,44.57 133.71,44.75 133.91,45.03L136.93,48.99L136.93,45.32C136.93,44.89 137.28,44.55 137.7,44.55C138.13,44.55 138.47,44.9 138.47,45.32L138.47,50.98C138.47,51.41 138.12,51.76 137.69,51.76L137.64,51.76C137.26,51.76 137.03,51.58 136.83,51.3L133.7,47.19L133.7,51C133.7,51.43 133.35,51.77 132.93,51.77C132.5,51.77 132.16,51.42 132.16,51L132.16,45.35Z" style="fill:rgb(238,48,66);fill-rule:nonzero;"/>
        <path d="M146.76,50.7L144.27,45.11C144.09,44.73 143.79,44.49 143.36,44.49L143.26,44.49C142.83,44.49 142.53,44.73 142.35,45.11L139.87,50.72C139.82,50.83 139.77,50.94 139.77,51.06C139.77,51.46 140.09,51.79 140.49,51.79C140.81,51.79 141.08,51.61 141.21,51.29L141.71,50.12L144.84,50.12L145.32,51.24C145.46,51.56 145.7,51.78 146.07,51.78C146.49,51.78 146.8,51.44 146.8,51.03C146.84,50.91 146.82,50.81 146.76,50.7ZM142.32,48.74L143.31,46.39L144.3,48.74L142.32,48.74Z" style="fill:rgb(238,48,66);fill-rule:nonzero;"/>
        <path d="M148.16,45.32C148.16,44.89 148.51,44.54 148.94,44.54C149.37,44.54 149.72,44.89 149.72,45.32L149.72,50.29L152.61,50.29C153.01,50.29 153.33,50.61 153.33,50.99C153.33,51.39 153.01,51.71 152.63,51.71L148.96,51.71C148.53,51.71 148.18,51.36 148.18,50.93L148.16,45.32Z" style="fill:rgb(238,48,66);fill-rule:nonzero;"/>
        <path d="M154.43,50.94C154.25,50.81 154.14,50.59 154.14,50.35C154.14,49.95 154.46,49.63 154.87,49.63C155.08,49.63 155.22,49.69 155.32,49.77C155.86,50.17 156.45,50.41 157.14,50.41C157.78,50.41 158.16,50.15 158.16,49.74L158.16,49.72C158.16,49.32 157.92,49.11 156.72,48.83C155.28,48.46 154.36,48.06 154.36,46.66L154.36,46.63C154.36,45.34 155.4,44.49 156.85,44.49C157.71,44.49 158.46,44.71 159.1,45.11C159.28,45.21 159.45,45.43 159.45,45.73C159.45,46.13 159.13,46.45 158.72,46.45C158.56,46.45 158.45,46.4 158.32,46.34C157.81,46.04 157.31,45.86 156.82,45.86C156.21,45.86 155.91,46.13 155.91,46.48L155.91,46.5C155.91,46.96 156.21,47.12 157.44,47.43C158.88,47.8 159.69,48.32 159.69,49.55L159.69,49.57C159.69,50.98 158.62,51.77 157.09,51.77C156.17,51.79 155.22,51.51 154.43,50.94Z" style="fill:rgb(238,48,66);fill-rule:nonzero;"/>
        <path d="M12.09,5.95C9.74,5.95 7.6,6.88 5.99,8.39L5.98,1.67C5.98,0.82 5.29,0.15 4.46,0.15L1.6,0.15C0.75,0.15 0.08,0.84 0.08,1.68C0.08,2.52 0.77,3.22 1.61,3.2L2.94,3.2L2.96,15.5L2.98,23.52C2.98,24.37 3.67,25.04 4.51,25.04C5.35,25.04 6.03,24.35 6.03,23.51L6.01,15.51C6.01,11.93 8.74,9.02 12.11,9.01C15.48,9.01 18.21,11.92 18.23,15.5L18.25,23.52C18.25,24.37 18.94,25.04 19.78,25.04C20.62,25.04 21.3,24.35 21.3,23.51L21.28,15.49C21.26,10.22 17.14,5.95 12.09,5.95Z" style="fill:rgb(0,187,227);fill-rule:nonzero;"/>
        <path d="M41.79,15.46C41.79,10.14 37.44,5.81 32.12,5.83C26.8,5.83 22.47,10.18 22.49,15.5C22.49,20.82 26.84,25.15 32.16,25.13C35.2,25.13 38.41,23.68 40.31,21.42C40.85,20.78 40.77,19.81 40.13,19.26C39.49,18.72 38.53,18.8 37.97,19.44C36.61,21.04 34.33,22.06 32.15,22.06C28.51,22.06 25.55,19.12 25.55,15.48C25.55,11.84 28.49,8.88 32.13,8.87C35.25,8.87 37.87,11.03 38.55,13.93L26.82,13.95C26.68,14.43 26.61,14.94 26.61,15.47C26.61,16 26.69,16.51 26.83,17L40.27,16.98C41.11,16.99 41.79,16.3 41.79,15.46Z" style="fill:rgb(0,187,227);fill-rule:nonzero;"/>
        <path d="M44.48,24.99C43.63,24.99 42.95,24.3 42.95,23.44L42.91,1.72C42.91,0.86 43.6,0.17 44.43,0.17C45.28,0.17 45.96,0.86 45.96,1.72L46,23.44C46.01,24.29 45.32,24.99 44.48,24.99Z" style="fill:rgb(0,187,227);fill-rule:nonzero;"/>
        <path d="M49.54,24.98C48.69,24.98 48.01,24.29 48.01,23.43L47.98,1.7C47.98,0.84 48.67,0.15 49.5,0.15C50.35,0.15 51.02,0.84 51.03,1.7L51.06,23.43C51.06,24.29 50.37,24.98 49.54,24.98Z" style="fill:rgb(0,187,227);fill-rule:nonzero;"/>
        <path d="M62.08,5.78C56.76,5.78 52.43,10.13 52.45,15.45C52.45,20.77 56.8,25.1 62.12,25.08C67.44,25.08 71.77,20.73 71.75,15.41C71.73,10.09 67.4,5.78 62.08,5.78ZM62.1,22.02C58.46,22.02 55.5,19.06 55.49,15.44C55.49,11.8 58.45,8.84 62.07,8.83C65.71,8.83 68.67,11.79 68.68,15.41C68.7,19.05 65.74,22.02 62.1,22.02Z" style="fill:rgb(0,187,227);fill-rule:nonzero;"/>
        <path d="M158.16,0.14L155.4,0.14C154.55,0.14 153.88,0.83 153.88,1.66L153.9,8.47C152.17,6.87 149.84,5.88 147.3,5.88C141.98,5.88 137.65,10.19 137.67,15.47C137.67,20.74 142.02,25.04 147.34,25.02C152.66,25.02 156.97,20.72 156.97,15.45L156.97,15.43L156.94,3.18L158.17,3.18C159.02,3.18 159.7,2.51 159.7,1.66C159.7,0.81 159.01,0.14 158.16,0.14ZM147.3,21.99C143.66,21.99 140.7,19.07 140.7,15.46C140.7,11.85 143.66,8.91 147.28,8.91C150.92,8.91 153.88,11.83 153.88,15.44C153.9,19.05 150.94,21.99 147.3,21.99Z" style="fill:rgb(0,187,227);fill-rule:nonzero;"/>
        <path d="M109.96,5.78C104.64,5.78 100.31,10.13 100.33,15.45C100.33,20.77 104.68,25.1 110,25.08C115.32,25.08 119.65,20.73 119.63,15.41C119.63,10.09 115.28,5.76 109.96,5.78ZM110,22.02C106.36,22.02 103.4,19.06 103.39,15.44C103.39,11.8 106.35,8.84 109.97,8.83C113.61,8.83 116.57,11.79 116.58,15.41C116.58,19.05 113.62,22.01 110,22.02Z" style="fill:rgb(0,187,227);fill-rule:nonzero;"/>
        <path d="M130.43,5.74C125.11,5.74 120.78,10.09 120.8,15.41L120.82,23.43C120.82,24.28 121.51,24.96 122.35,24.95C123.2,24.95 123.87,24.26 123.87,23.42L123.85,15.4C123.85,11.76 126.81,8.8 130.43,8.8C131.28,8.8 131.96,8.11 131.95,7.27C131.96,6.43 131.28,5.74 130.43,5.74Z" style="fill:rgb(0,187,227);fill-rule:nonzero;"/>
        <path d="M97.53,6.22C96.68,6.22 96.03,6.92 96.01,7.75L96.01,11.49C96.01,13.74 96.01,16.01 96.03,18.26C96.03,19.7 95.36,21.04 93.99,21.65C92.25,22.42 90.03,21.7 89.23,19.92C88.83,19.03 88.93,18 88.93,17.06L88.93,11.66C88.93,11.32 88.95,10.99 88.83,10.67C88.49,9.78 87.39,9.42 86.59,9.92C86.08,10.24 85.89,10.77 85.87,11.34C85.87,13.54 85.87,15.77 85.89,17.97C85.89,19.23 86.05,20.45 86.66,21.56C87.57,23.24 89.2,24.47 91.09,24.84C92.82,25.19 94.68,24.89 96.15,23.93C97.76,22.89 98.85,21.17 99.07,19.25C99.15,18.55 99.12,17.83 99.12,17.11C99.12,15.9 99.12,14.67 99.12,13.45C99.12,11.55 99.17,9.63 99.12,7.71C99.04,6.93 98.38,6.22 97.53,6.22Z" style="fill:rgb(0,187,227);fill-rule:nonzero;"/>
        <path d="M86.32,23.08C85.78,22.36 85.36,21.56 85.11,20.7C83.45,22.73 79.93,22.22 78.99,19.76C78.62,18.82 78.77,17.64 78.77,16.64C78.77,13.78 78.77,10.92 78.75,8.06C78.75,7.48 78.64,6.96 78.16,6.57C77.2,5.82 75.76,6.49 75.7,7.7C75.65,8.56 75.7,9.46 75.7,10.32C75.7,13.04 75.7,15.75 75.72,18.47C75.72,20.56 76.69,22.54 78.4,23.77C80.22,25.1 82.78,25.38 84.87,24.54C85.51,24.28 86.12,23.92 86.64,23.47C86.53,23.33 86.42,23.21 86.32,23.08Z" style="fill:rgb(0,187,227);fill-rule:nonzero;"/>
        <path d="M134.63,25.12C133.78,25.12 133.1,24.43 133.1,23.57L133.08,1.83C133.08,0.97 133.77,0.28 134.6,0.28C135.45,0.28 136.12,0.97 136.13,1.83L136.16,23.56C136.15,24.42 135.48,25.12 134.63,25.12Z" style="fill:rgb(0,187,227);fill-rule:nonzero;"/>
    </g>
</svg>
