<?xml version="1.0" encoding="utf-8"?>
<!-- Generator: Adobe Illustrator 16.0.4, SVG Export Plug-In . SVG Version: 6.00 Build 0)  -->
<!DOCTYPE svg PUBLIC "-//W3C//DTD SVG 1.1//EN" "http://www.w3.org/Graphics/SVG/1.1/DTD/svg11.dtd">
<svg version="1.1" id="Layer_1" xmlns="http://www.w3.org/2000/svg" xmlns:xlink="http://www.w3.org/1999/xlink" x="0px" y="0px"
	 width="150px" height="35px" viewBox="0 0 150 35" enable-background="new 0 0 150 35" xml:space="preserve">
<rect fill="#0050A0" width="150" height="35"/>
<g>
	<polygon fill="#FFFFFF" points="15.013,6.669 21.353,6.669 23.566,18.162 29.131,6.663 35.754,6.655 35.754,28.195 30.204,28.195 
		30.214,15.006 30.158,15.006 23.934,28.195 20.565,28.195 17.961,15.006 17.904,15.006 14.194,28.195 8.292,28.195 	"/>
	<rect x="39.524" y="6.657" fill="#FFFFFF" width="5.599" height="21.541"/>
	<polygon fill="#FFFFFF" points="58.106,28.199 52.507,28.199 52.507,11.401 47.879,11.401 47.879,6.658 62.734,6.658 
		62.734,11.401 58.106,11.401 	"/>
	<polygon fill="#FFFFFF" points="90.188,11.401 90.188,15 96.705,15 96.705,19.742 90.188,19.742 90.188,23.457 97.059,23.457 
		97.059,28.199 84.41,28.199 84.41,6.659 97.059,6.659 97.059,11.401 	"/>
	<polygon fill="#FFFFFF" points="108.406,11.422 108.406,6.649 116.109,6.649 116.109,28.191 110.602,28.191 110.602,11.422 	"/>
	<path fill="#FFFFFF" d="M125.682,20.812c-0.668-0.934-1.068-2.076-1.068-3.313c0-3.146,2.551-5.697,5.697-5.697
		c1.266,0,2.432,0.417,3.377,1.116l4.08-4.023c-1.998-1.734-4.602-2.792-7.457-2.792c-6.295,0-11.396,5.103-11.396,11.396
		c0,2.797,1.012,5.356,2.684,7.34L125.682,20.812z"/>
	<path fill="#FFFFFF" d="M138.863,9.982l-4.068,4.011c0.758,0.969,1.213,2.184,1.213,3.507c0,3.147-2.551,5.7-5.697,5.7
		c-1.354,0-2.594-0.475-3.57-1.264l-4.066,4.01c2.021,1.828,4.695,2.951,7.637,2.951c6.295,0,11.398-5.102,11.398-11.397
		C141.709,14.617,140.629,11.991,138.863,9.982"/>
	<path fill="#FFFFFF" d="M76.312,19.371c3.057-0.543,4.713-3.114,4.713-6.084c0-4.6-3.227-6.629-7.484-6.629H65.17v21.542h5.6
		v-8.285h0.057l5.285,8.285h6.97L76.312,19.371z M71.313,16.314H70.77v-5.37h0.543c1.828,0,3.885,0.342,3.885,2.686
		C75.198,15.971,73.141,16.314,71.313,16.314"/>
</g>
<g>
</g>
<g>
</g>
<g>
</g>
<g>
</g>
<g>
</g>
<g>
</g>
</svg>
